<svg width="16" height="16" viewBox="0 0 16 16" fill="none" xmlns="http://www.w3.org/2000/svg">
<path d="M1.97677 4.2288C1.9601 3.41914 1.88605 2.77521 1.75463 2.29699C1.62322 1.81877 1.45796 1.57966 1.25888 1.57966C1.11863 1.57966 0.995059 1.69566 0.88816 1.92767C0.782241 2.15968 0.698879 2.48165 0.638074 2.89358C0.57825 3.30077 0.548337 3.76479 0.548337 4.28562C0.548337 4.66915 0.5655 5.00532 0.599826 5.29415C0.634151 5.58297 0.680245 5.83155 0.738108 6.03988C0.796952 6.24348 0.86168 6.41867 0.932293 6.56545C1.00389 6.71223 1.07597 6.83534 1.14854 6.93477L1.4663 7.37511C1.56241 7.50295 1.65852 7.6663 1.75463 7.86517C1.85075 8.06403 1.93852 8.31498 2.01796 8.61801C2.09838 8.9163 2.16262 9.28325 2.21067 9.71886C2.25971 10.1497 2.28423 10.6682 2.28423 11.2743C2.28423 12.0508 2.24255 12.7492 2.15918 13.3694C2.07582 13.9897 1.95617 14.4821 1.80024 14.8467C1.6443 15.2065 1.45747 15.3865 1.23975 15.3865C1.03478 15.3865 0.856776 15.2231 0.705744 14.8964C0.554712 14.565 0.436044 14.1081 0.34974 13.5257C0.263436 12.9433 0.21489 12.2686 0.204102 11.5015H0.486551C0.496359 12.0744 0.535588 12.5598 0.604239 12.9575C0.67289 13.3552 0.762136 13.6583 0.871978 13.8666C0.981819 14.0702 1.10441 14.172 1.23975 14.172C1.3898 14.172 1.52318 14.0512 1.63989 13.8098C1.75758 13.5636 1.84976 13.2226 1.91645 12.787C1.98412 12.3467 2.01796 11.8353 2.01796 11.253C2.01796 10.7605 1.99148 10.3486 1.93852 10.0172C1.88556 9.68098 1.81152 9.39926 1.71639 9.17199C1.62224 8.94471 1.51288 8.74348 1.38833 8.56829L1.02791 8.05693C0.791558 7.71602 0.608162 7.2449 0.477725 6.64358C0.347288 6.04225 0.282069 5.27521 0.282069 4.34244C0.282069 3.56119 0.325222 2.87464 0.411526 2.28278C0.498811 1.68619 0.616498 1.22218 0.764588 0.890736C0.913659 0.554562 1.08087 0.386475 1.26623 0.386475C1.45355 0.386475 1.61929 0.552195 1.76346 0.883635C1.90763 1.21507 2.02188 1.67199 2.10623 2.25437C2.19155 2.83202 2.23715 3.49017 2.24304 4.2288H1.97677Z" fill="white"/>
<path d="M2.7638 1.78562V0.592441H4.94838V1.78562H3.99364V15.1379H3.71854V1.78562H2.7638Z" fill="white"/>
<path d="M5.56771 15.1379V0.592441H7.31537V1.78562H5.8428V7.26147H7.22269V8.45466H5.8428V13.9447H7.34479V15.1379H5.56771Z" fill="white"/>
<path d="M8.02737 15.1379V0.592441H8.99977C9.21357 0.592441 9.39206 0.791305 9.53524 1.18903C9.67941 1.58202 9.78778 2.11706 9.86036 2.79415C9.93391 3.47123 9.97069 4.23354 9.97069 5.08108C9.97069 5.92861 9.9344 6.69329 9.86183 7.37511C9.78925 8.05219 9.68137 8.5896 9.53819 8.98733C9.395 9.38032 9.217 9.57682 9.00418 9.57682H8.23921V8.38363H8.99682C9.15472 8.38363 9.28565 8.24159 9.38961 7.9575C9.49356 7.66867 9.57104 7.27568 9.62204 6.77852C9.67402 6.28136 9.70001 5.71555 9.70001 5.08108C9.70001 4.44661 9.67402 3.88079 9.62204 3.38363C9.57104 2.88647 9.49307 2.49585 9.38813 2.21176C9.28418 1.92767 9.15227 1.78562 8.99241 1.78562H8.30247V15.1379H8.02737Z" fill="white"/>
<path d="M12.0567 0.592441V15.1379H11.7816V0.592441H12.0567Z" fill="white"/>
<path d="M15.2041 0.592441V15.1379H14.9364L13.1563 2.9575H13.1328V15.1379H12.8577V0.592441H13.124L14.9099 12.787H14.9334V0.592441H15.2041Z" fill="white"/>
</svg>
